<?xml version="1.0" encoding="UTF-8"?>
<svg width="123px" height="32px" viewBox="0 0 123 32" version="1.1" xmlns="http://www.w3.org/2000/svg" xmlns:xlink="http://www.w3.org/1999/xlink">
    <!-- Generator: Sketch 64 (93537) - https://sketch.com -->
    <title>Group</title>
    <desc>Created with Sketch.</desc>
    <g id="Page-1" stroke="none" stroke-width="1" fill="none" fill-rule="evenodd">
        <g id="Artboard" transform="translate(-50.000000, -89.000000)" fill-rule="nonzero">
            <g id="Group" transform="translate(50.864000, 89.240000)">
                <path d="M6.648,17.928 C8.36,17.928 9.788,17.464 10.932,16.536 C12.076,15.608 12.792,14.344 13.08,12.744 L13.08,12.744 L9.504,12.744 C9.36,13.448 9.032,14.004 8.52,14.412 C8.008,14.82 7.36,15.024 6.576,15.024 C5.68,15.024 4.932,14.692 4.332,14.028 C3.732,13.364 3.432,12.392 3.432,11.112 C3.432,9.832 3.732,8.86 4.332,8.196 C4.932,7.532 5.68,7.2 6.576,7.2 C7.36,7.2 8.008,7.404 8.52,7.812 C9.032,8.22 9.36,8.776 9.504,9.48 L9.504,9.48 L13.08,9.48 C12.792,7.88 12.076,6.616 10.932,5.688 C9.788,4.76 8.36,4.296 6.648,4.296 C5.352,4.296 4.2,4.568 3.192,5.112 C2.184,5.656 1.4,6.444 0.84,7.476 C0.28,8.508 -7.10542736e-15,9.72 -7.10542736e-15,11.112 C-7.10542736e-15,12.504 0.28,13.712 0.84,14.736 C1.4,15.76 2.184,16.548 3.192,17.1 C4.2,17.652 5.352,17.928 6.648,17.928 Z M21.624,17.928 C22.92,17.928 24.084,17.652 25.116,17.1 C26.148,16.548 26.96,15.76 27.552,14.736 C28.144,13.712 28.44,12.504 28.44,11.112 C28.44,9.72 28.144,8.508 27.552,7.476 C26.96,6.444 26.148,5.656 25.116,5.112 C24.084,4.568 22.92,4.296 21.624,4.296 C20.328,4.296 19.164,4.568 18.132,5.112 C17.1,5.656 16.288,6.444 15.696,7.476 C15.104,8.508 14.808,9.72 14.808,11.112 C14.808,12.504 15.104,13.712 15.696,14.736 C16.288,15.76 17.1,16.548 18.132,17.1 C19.164,17.652 20.328,17.928 21.624,17.928 Z M21.624,15 C20.68,15 19.88,14.668 19.224,14.004 C18.568,13.34 18.24,12.376 18.24,11.112 C18.24,9.848 18.568,8.884 19.224,8.22 C19.88,7.556 20.68,7.224 21.624,7.224 C22.568,7.224 23.368,7.556 24.024,8.22 C24.68,8.884 25.008,9.848 25.008,11.112 C25.008,12.376 24.68,13.34 24.024,14.004 C23.368,14.668 22.568,15 21.624,15 Z M34.224,17.76 L34.224,10.704 C34.224,9.536 34.512,8.64 35.088,8.016 C35.664,7.392 36.432,7.08 37.392,7.08 C38.336,7.08 39.08,7.372 39.624,7.956 C40.168,8.54 40.44,9.36 40.44,10.416 L40.44,10.416 L40.44,17.76 L43.8,17.76 L43.8,10.032 C43.8,8.208 43.344,6.792 42.432,5.784 C41.52,4.776 40.296,4.272 38.76,4.272 C37.704,4.272 36.772,4.524 35.964,5.028 C35.156,5.532 34.576,6.232 34.224,7.128 L34.224,7.128 L34.224,4.464 L30.84,4.464 L30.84,17.76 L34.224,17.76 Z M53.88,17.76 L53.88,14.856 L52.56,14.856 C51.952,14.856 51.52,14.728 51.264,14.472 C51.008,14.216 50.88,13.768 50.88,13.128 L50.88,13.128 L50.88,7.32 L53.856,7.32 L53.856,4.464 L50.88,4.464 L50.88,1.176 L47.496,1.176 L47.496,4.464 L45.648,4.464 L45.648,7.32 L47.496,7.32 L47.496,13.08 C47.496,14.76 47.892,15.96 48.684,16.68 C49.476,17.4 50.616,17.76 52.104,17.76 L52.104,17.76 L53.88,17.76 Z M61.512,17.928 C62.632,17.928 63.592,17.66 64.392,17.124 C65.192,16.588 65.76,15.872 66.096,14.976 L66.096,14.976 L66.096,17.76 L69.456,17.76 L69.456,4.464 L66.096,4.464 L66.096,7.224 C65.76,6.328 65.192,5.616 64.392,5.088 C63.592,4.56 62.632,4.296 61.512,4.296 C60.392,4.296 59.384,4.568 58.488,5.112 C57.592,5.656 56.892,6.444 56.388,7.476 C55.884,8.508 55.632,9.72 55.632,11.112 C55.632,12.504 55.884,13.716 56.388,14.748 C56.892,15.78 57.592,16.568 58.488,17.112 C59.384,17.656 60.392,17.928 61.512,17.928 Z M62.568,14.952 C61.512,14.952 60.664,14.612 60.024,13.932 C59.384,13.252 59.064,12.312 59.064,11.112 C59.064,9.912 59.384,8.968 60.024,8.28 C60.664,7.592 61.512,7.248 62.568,7.248 C63.592,7.248 64.436,7.596 65.1,8.292 C65.764,8.988 66.096,9.928 66.096,11.112 C66.096,12.28 65.764,13.212 65.1,13.908 C64.436,14.604 63.592,14.952 62.568,14.952 Z M80.472,17.928 C81.592,17.928 82.6,17.656 83.496,17.112 C84.392,16.568 85.092,15.78 85.596,14.748 C86.1,13.716 86.352,12.504 86.352,11.112 C86.352,9.72 86.1,8.508 85.596,7.476 C85.092,6.444 84.392,5.656 83.496,5.112 C82.6,4.568 81.592,4.296 80.472,4.296 C79.352,4.296 78.396,4.56 77.604,5.088 C76.812,5.616 76.248,6.328 75.912,7.224 L75.912,7.224 L75.912,-1.77635684e-15 L72.528,-1.77635684e-15 L72.528,17.76 L75.912,17.76 L75.912,14.976 C76.248,15.872 76.812,16.588 77.604,17.124 C78.396,17.66 79.352,17.928 80.472,17.928 Z M79.416,14.952 C78.392,14.952 77.548,14.604 76.884,13.908 C76.22,13.212 75.888,12.28 75.888,11.112 C75.888,9.928 76.22,8.988 76.884,8.292 C77.548,7.596 78.392,7.248 79.416,7.248 C80.472,7.248 81.32,7.592 81.96,8.28 C82.6,8.968 82.92,9.912 82.92,11.112 C82.92,12.312 82.6,13.252 81.96,13.932 C81.32,14.612 80.472,14.952 79.416,14.952 Z M92.136,17.76 L92.136,-1.77635684e-15 L88.752,-1.77635684e-15 L88.752,17.76 L92.136,17.76 Z M101.184,17.928 C102.288,17.928 103.292,17.72 104.196,17.304 C105.1,16.888 105.84,16.312 106.416,15.576 C106.992,14.84 107.368,14.008 107.544,13.08 L107.544,13.08 L103.968,13.08 C103.824,13.736 103.492,14.256 102.972,14.64 C102.452,15.024 101.8,15.216 101.016,15.216 C100.136,15.216 99.4,14.936 98.808,14.376 C98.216,13.816 97.896,12.944 97.848,11.76 L97.848,11.76 L107.592,11.76 C107.672,11.328 107.712,10.944 107.712,10.608 C107.712,9.392 107.444,8.308 106.908,7.356 C106.372,6.404 105.612,5.656 104.628,5.112 C103.644,4.568 102.496,4.296 101.184,4.296 C99.888,4.296 98.736,4.568 97.728,5.112 C96.72,5.656 95.936,6.444 95.376,7.476 C94.816,8.508 94.536,9.72 94.536,11.112 C94.536,12.504 94.816,13.712 95.376,14.736 C95.936,15.76 96.72,16.548 97.728,17.1 C98.736,17.652 99.888,17.928 101.184,17.928 Z M104.304,10.272 L97.848,10.272 C97.912,9.184 98.256,8.36 98.88,7.8 C99.504,7.24 100.272,6.96 101.184,6.96 C102.08,6.96 102.836,7.24 103.452,7.8 C104.068,8.36 104.352,9.184 104.304,10.272 L104.304,10.272 Z M115.656,17.928 C117.16,17.928 118.356,17.576 119.244,16.872 C120.132,16.168 120.576,15.248 120.576,14.112 C120.576,13.2 120.348,12.476 119.892,11.94 C119.436,11.404 118.892,11.012 118.26,10.764 C117.628,10.516 116.808,10.28 115.8,10.056 C115.08,9.88 114.528,9.728 114.144,9.6 C113.76,9.472 113.44,9.296 113.184,9.072 C112.928,8.848 112.8,8.552 112.8,8.184 C112.8,7.72 112.96,7.352 113.28,7.08 C113.6,6.808 114.048,6.672 114.624,6.672 C115.344,6.672 115.928,6.864 116.376,7.248 C116.824,7.632 117.112,8.144 117.24,8.784 L117.24,8.784 L120.408,8.784 C120.168,7.424 119.56,6.336 118.584,5.52 C117.608,4.704 116.312,4.296 114.696,4.296 C113.144,4.296 111.928,4.656 111.048,5.376 C110.168,6.096 109.728,7.032 109.728,8.184 C109.728,9.08 109.948,9.784 110.388,10.296 C110.828,10.808 111.356,11.18 111.972,11.412 C112.588,11.644 113.392,11.872 114.384,12.096 C115.104,12.272 115.66,12.424 116.052,12.552 C116.444,12.68 116.772,12.864 117.036,13.104 C117.3,13.344 117.432,13.656 117.432,14.04 C117.432,14.488 117.28,14.852 116.976,15.132 C116.672,15.412 116.232,15.552 115.656,15.552 C114.856,15.552 114.208,15.364 113.712,14.988 C113.216,14.612 112.928,14.096 112.848,13.44 L112.848,13.44 L109.608,13.44 C109.832,14.88 110.464,15.988 111.504,16.764 C112.544,17.54 113.928,17.928 115.656,17.928 Z" id="contables" fill="#66CDAA"></path>
                <path d="M82.616,30.858 C83.372,30.858 84.051,30.697 84.653,30.375 C85.255,30.053 85.7286667,29.5933333 86.074,28.996 C86.4193333,28.3986667 86.592,27.694 86.592,26.882 C86.592,26.07 86.4193333,25.363 86.074,24.761 C85.7286667,24.159 85.255,23.6993333 84.653,23.382 C84.051,23.0646667 83.372,22.906 82.616,22.906 C81.86,22.906 81.181,23.0646667 80.579,23.382 C79.977,23.6993333 79.5033333,24.159 79.158,24.761 C78.8126667,25.363 78.64,26.07 78.64,26.882 C78.64,27.694 78.8126667,28.3986667 79.158,28.996 C79.5033333,29.5933333 79.977,30.053 80.579,30.375 C81.181,30.697 81.86,30.858 82.616,30.858 Z M82.616,29.15 C82.0653333,29.15 81.5986667,28.9563333 81.216,28.569 C80.8333333,28.1816667 80.642,27.6193333 80.642,26.882 C80.642,26.1446667 80.8333333,25.5823333 81.216,25.195 C81.5986667,24.8076667 82.0653333,24.614 82.616,24.614 C83.1666667,24.614 83.6333333,24.8076667 84.016,25.195 C84.3986667,25.5823333 84.59,26.1446667 84.59,26.882 C84.59,27.6193333 84.3986667,28.1816667 84.016,28.569 C83.6333333,28.9563333 83.1666667,29.15 82.616,29.15 Z M89.966,23.004 L87.992,23.004 L87.992,30.76 L89.966,30.76 L89.966,26.644 C89.966,25.9626667 90.134,25.44 90.47,25.076 C90.806,24.712 91.254,24.53 91.814,24.53 C92.3646667,24.53 92.7986667,24.7003333 93.116,25.041 C93.4333333,25.3816667 93.592,25.86 93.592,26.476 L93.592,26.476 L93.592,30.76 L95.552,30.76 L95.552,26.252 C95.552,25.188 95.286,24.362 94.754,23.774 C94.222,23.186 93.508,22.892 92.612,22.892 C91.996,22.892 91.4523333,23.039 90.981,23.333 C90.5096667,23.627 90.1713333,24.0353333 89.966,24.558 L89.966,24.557 L89.966,23.004 Z M99.262,30.76 L99.262,20.4 L97.288,20.4 L97.288,30.76 L99.262,30.76 Z M102.048,21.842 C102.412,21.842 102.706,21.7416667 102.93,21.541 C103.154,21.3403333 103.266,21.086 103.266,20.778 C103.266,20.4606667 103.154,20.2016667 102.93,20.001 C102.706,19.8003333 102.412,19.7 102.048,19.7 C101.684,19.7 101.39,19.8003333 101.166,20.001 C100.942,20.2016667 100.83,20.4606667 100.83,20.778 C100.83,21.086 100.942,21.3403333 101.166,21.541 C101.39,21.7416667 101.684,21.842 102.048,21.842 Z M103.028,30.76 L103.028,23.004 L101.054,23.004 L101.054,30.76 L103.028,30.76 Z M106.794,23.004 L104.82,23.004 L104.82,30.76 L106.794,30.76 L106.794,26.644 C106.794,25.9626667 106.962,25.44 107.298,25.076 C107.634,24.712 108.082,24.53 108.642,24.53 C109.192667,24.53 109.626667,24.7003333 109.944,25.041 C110.261333,25.3816667 110.42,25.86 110.42,26.476 L110.42,26.476 L110.42,30.76 L112.38,30.76 L112.38,26.252 C112.38,25.188 112.114,24.362 111.582,23.774 C111.05,23.186 110.336,22.892 109.44,22.892 C108.824,22.892 108.280333,23.039 107.809,23.333 C107.337667,23.627 106.999333,24.0353333 106.794,24.558 L106.793,24.557 L106.794,23.004 Z M117.602,30.858 C118.246,30.858 118.831667,30.7366667 119.359,30.494 C119.886333,30.2513333 120.318,29.9153333 120.654,29.486 C120.99,29.0566667 121.209333,28.5713333 121.312,28.03 L121.312,28.03 L119.226,28.03 C119.142,28.4126667 118.948333,28.716 118.645,28.94 C118.341667,29.164 117.961333,29.276 117.504,29.276 C116.990667,29.276 116.561333,29.1126667 116.216,28.786 C115.870667,28.4593333 115.684,27.9506667 115.656,27.26 L115.656,27.26 L121.34,27.26 C121.386667,27.008 121.41,26.784 121.41,26.588 C121.41,25.8786667 121.253667,25.2463333 120.941,24.691 C120.628333,24.1356667 120.185,23.6993333 119.611,23.382 C119.037,23.0646667 118.367333,22.906 117.602,22.906 C116.846,22.906 116.174,23.0646667 115.586,23.382 C114.998,23.6993333 114.540667,24.159 114.214,24.761 C113.887333,25.363 113.724,26.07 113.724,26.882 C113.724,27.694 113.887333,28.3986667 114.214,28.996 C114.540667,29.5933333 114.998,30.053 115.586,30.375 C116.174,30.697 116.846,30.858 117.602,30.858 Z M119.422,26.392 L115.656,26.392 C115.693333,25.7573333 115.894,25.2766667 116.258,24.95 C116.622,24.6233333 117.07,24.46 117.602,24.46 C118.124667,24.46 118.565667,24.6233333 118.925,24.95 C119.284333,25.2766667 119.45,25.7573333 119.422,26.392 L119.422,26.392 Z" id="online" fill="#444444"></path>
            </g>
        </g>
    </g>
</svg>