<?xml version="1.0" encoding="UTF-8"?>
<svg width="128px" height="23px" viewBox="0 0 128 23" version="1.1" xmlns="http://www.w3.org/2000/svg" xmlns:xlink="http://www.w3.org/1999/xlink">
    <!-- Generator: Sketch 56.2 (81672) - https://sketch.com -->
    <title>logo-on-white</title>
    <desc>Created with Sketch.</desc>
    <g id="Page-1" stroke="none" stroke-width="1" fill="none" fill-rule="evenodd">
        <g id="logo-on-white" fill-rule="nonzero">
            <path d="M11.448,3.12 C12.9200074,3.12 14.0919956,3.57599544 14.964,4.488 C15.8360044,5.40000456 16.272,6.66399192 16.272,8.28 C16.272,8.80800264 16.2240005,9.35999712 16.128,9.936 C15.8719987,11.328007 15.4000034,12.5399948 14.712,13.572 C14.0239966,14.6040052 13.184005,15.3919973 12.192,15.936 C11.199995,16.4800027 10.1440056,16.752 9.024,16.752 C7.9039944,16.752 6.99600348,16.4840027 6.3,15.948 C5.60399652,15.4119973 5.16800088,14.6960045 4.992,13.8 L3.384,22.92 L0,22.92 L3.456,3.288 L6.84,3.288 L6.336,6.048 C6.83200248,5.15199552 7.52799552,4.44000264 8.424,3.912 C9.32000448,3.38399736 10.3279944,3.12 11.448,3.12 Z M8.496,13.776 C9.5360052,13.776 10.4399962,13.4360034 11.208,12.756 C11.9760038,12.0759966 12.4719989,11.136006 12.696,9.936 C12.7440002,9.59999832 12.768,9.29600136 12.768,9.024 C12.768,8.07999528 12.5080026,7.35200256 11.988,6.84 C11.4679974,6.32799744 10.7520046,6.072 9.84,6.072 C8.81599488,6.072 7.91200392,6.41999652 7.128,7.116 C6.34399608,7.81200348 5.84800104,8.75199408 5.64,9.936 C5.59199976,10.2400015 5.568,10.5279986 5.568,10.8 C5.568,11.7280046 5.83599732,12.4559974 6.372,12.984 C6.90800268,13.5120026 7.6159956,13.776 8.496,13.776 Z M24.84,3.12 C26.0080058,3.12 26.9559964,3.38799732 27.684,3.924 C28.4120036,4.46000268 28.8639991,5.1679956 29.04,6.048 L29.544,3.288 L32.904,3.288 L30.552,16.584 L27.192,16.584 L27.696,13.8 C27.1999975,14.6960045 26.5040045,15.4119973 25.608,15.948 C24.7119955,16.4840027 23.7040056,16.752 22.584,16.752 C21.0799925,16.752 19.8960043,16.2880046 19.032,15.36 C18.1679957,14.4319954 17.736,13.1440082 17.736,11.496 C17.736,10.8719969 17.7919994,10.256003 17.904,9.648 C18.1440012,8.31999336 18.5999966,7.16000496 19.272,6.168 C19.9440034,5.17599504 20.7639952,4.4200026 21.732,3.9 C22.7000048,3.3799974 23.736,3.12 24.84,3.12 Z M25.536,6.072 C24.4799947,6.072 23.5680038,6.41599656 22.8,7.104 C22.0319962,7.79200344 21.544001,8.735994 21.336,9.936 C21.2719997,10.3840022 21.24,10.6959991 21.24,10.872 C21.24,11.7840046 21.4999974,12.4959974 22.02,13.008 C22.5400026,13.5200026 23.2559954,13.776 24.168,13.776 C25.1920051,13.776 26.0959961,13.4280035 26.88,12.732 C27.6640039,12.0359965 28.159999,11.1040058 28.368,9.936 C28.4320003,9.51999792 28.464,9.21600096 28.464,9.024 C28.464,8.11199544 28.1960027,7.39200264 27.66,6.864 C27.1239973,6.33599736 26.4160044,6.072 25.536,6.072 Z M43.968,3.12 C45.4400074,3.12 46.6119956,3.57599544 47.484,4.488 C48.3560044,5.40000456 48.792,6.66399192 48.792,8.28 C48.792,8.80800264 48.7440005,9.35999712 48.648,9.936 C48.3919987,11.328007 47.9200034,12.5399948 47.232,13.572 C46.5439966,14.6040052 45.704005,15.3919973 44.712,15.936 C43.719995,16.4800027 42.6640056,16.752 41.544,16.752 C40.4239944,16.752 39.5160035,16.4840027 38.82,15.948 C38.1239965,15.4119973 37.6880009,14.6960045 37.512,13.8 L35.904,22.92 L32.52,22.92 L35.976,3.288 L39.36,3.288 L38.856,6.048 C39.3520025,5.15199552 40.0479955,4.44000264 40.944,3.912 C41.8400045,3.38399736 42.8479944,3.12 43.968,3.12 Z M41.016,13.776 C42.0560052,13.776 42.9599962,13.4360034 43.728,12.756 C44.4960038,12.0759966 44.9919989,11.136006 45.216,9.936 C45.2640002,9.59999832 45.288,9.29600136 45.288,9.024 C45.288,8.07999528 45.0280026,7.35200256 44.508,6.84 C43.9879974,6.32799744 43.2720046,6.072 42.36,6.072 C41.3359949,6.072 40.4320039,6.41999652 39.648,7.116 C38.8639961,7.81200348 38.368001,8.75199408 38.16,9.936 C38.1119998,10.2400015 38.088,10.5279986 38.088,10.8 C38.088,11.7280046 38.3559973,12.4559974 38.892,12.984 C39.4280027,13.5120026 40.1359956,13.776 41.016,13.776 Z M58.2,3.12 C59.9280086,3.12 61.2839951,3.57599544 62.268,4.488 C63.2520049,5.40000456 63.744,6.6159924 63.744,8.136 C63.744,8.48800176 63.7040004,8.91999744 63.624,9.432 C63.5279995,9.9120024 63.4240006,10.2959986 63.312,10.584 L53.544,10.584 C53.5119998,10.7600009 53.496,11.0159983 53.496,11.352 C53.496,12.2800046 53.7359976,12.9599978 54.216,13.392 C54.6960024,13.8240022 55.3279961,14.04 56.112,14.04 C56.8960039,14.04 57.583997,13.844002 58.176,13.452 C58.768003,13.059998 59.1919987,12.5440032 59.448,11.904 L63.024,11.904 C62.4959974,13.3440072 61.5880064,14.5119955 60.3,15.408 C59.0119936,16.3040045 57.5120086,16.752 55.8,16.752 C54.1039915,16.752 52.756,16.2800047 51.756,15.336 C50.756,14.3919953 50.256,13.0800084 50.256,11.4 C50.256,10.8879974 50.3039995,10.3440029 50.4,9.768 C50.6400012,8.4079932 51.1319963,7.228005 51.876,6.228 C52.6200037,5.227995 53.5399945,4.46000268 54.636,3.924 C55.7320055,3.38799732 56.9199936,3.12 58.2,3.12 Z M60.264,9.096 C60.3280003,8.79199848 60.36,8.48800152 60.36,8.184 C60.36,7.383996 60.1120025,6.784 59.616,6.384 C59.1199975,5.983998 58.4960038,5.784 57.744,5.784 C56.8159954,5.784 55.9920036,6.0639972 55.272,6.624 C54.5519964,7.1840028 54.0640013,8.00799456 53.808,9.096 L60.264,9.096 Z M70.032,5.832 C70.6720032,4.98399576 71.4439955,4.31600244 72.348,3.828 C73.252,3.33999756 74.2159949,3.096 75.24,3.096 L74.592,6.72 L73.608,6.72 C71.1279876,6.72 69.688002,7.87198848 69.288,10.176 L68.16,16.584 L64.752,16.584 L67.104,3.288 L70.488,3.288 L70.032,5.832 Z M81.048,3.12 C82.840009,3.12 84.2039953,3.52399596 85.14,4.332 C86.0760047,5.14000404 86.5839996,6.23199312 86.664,7.608 L83.352,7.608 C83.3359999,6.95199672 83.1040022,6.43600188 82.656,6.06 C82.2079978,5.68399812 81.5760041,5.496 80.76,5.496 C80.151997,5.496 79.6600019,5.63199864 79.284,5.904 C78.9079981,6.17600136 78.72,6.54399768 78.72,7.008 C78.72,7.47200232 78.9479977,7.8239988 79.404,8.064 C79.8600023,8.3040012 80.5679952,8.55199872 81.528,8.808 C82.4560046,9.08000136 83.2119971,9.33999876 83.796,9.588 C84.3800029,9.83600124 84.8839979,10.1999976 85.308,10.68 C85.7320021,11.1600024 85.944,11.7919961 85.944,12.576 C85.944,12.8800015 85.9120003,13.1839985 85.848,13.488 C85.655999,14.4640049 85.1040046,15.251997 84.192,15.852 C83.2799954,16.452003 82.0640076,16.752 80.544,16.752 C78.7999913,16.752 77.4040052,16.356004 76.356,15.564 C75.3079948,14.771996 74.7680002,13.672007 74.736,12.264 L78.048,12.264 C77.9999998,12.9040032 78.2279975,13.4159981 78.732,13.8 C79.236,14.1840019 79.9359955,14.376 80.832,14.376 C81.4720032,14.376 81.9599983,14.2320014 82.296,13.944 C82.6320017,13.6559986 82.8,13.2880022 82.8,12.84 C82.8,12.4879982 82.6760012,12.1960012 82.428,11.964 C82.1799988,11.7319988 81.8720018,11.5480007 81.504,11.412 C81.1359982,11.2759993 80.6080034,11.112001 79.92,10.92 C79.0079954,10.6639987 78.2720028,10.4200012 77.712,10.188 C77.1519972,9.95599884 76.672002,9.60800232 76.272,9.144 C75.871998,8.67999768 75.672,8.07200376 75.672,7.32 C75.672,7.04799864 75.6959998,6.76000152 75.744,6.456 C75.9200009,5.46399504 76.4679954,4.66000308 77.388,4.044 C78.3080046,3.42799692 79.5279924,3.12 81.048,3.12 Z" id="papers" fill="#373F43"></path>
            <path d="M97.8,3.096 C99.1120066,3.096 100.135996,3.46799628 100.872,4.212 C101.608004,4.95600372 101.976,6.01599312 101.976,7.392 C101.976,7.92000264 101.936,8.40799776 101.856,8.856 L100.488,16.584 L97.104,16.584 L98.424,9.24 C98.4720002,8.95199856 98.496,8.67200136 98.496,8.4 C98.496,7.599996 98.2720022,6.98400216 97.824,6.552 C97.3759978,6.11999784 96.752004,5.904 95.952,5.904 C94.9919952,5.904 94.1680034,6.21599688 93.48,6.84 C92.7919966,7.46400312 92.352001,8.35999416 92.16,9.528 L92.16,9.432 L90.912,16.584 L87.504,16.584 L89.856,3.288 L93.24,3.288 L92.784,5.952 C93.2960026,5.05599552 93.9959956,4.35600252 94.884,3.852 C95.7720044,3.34799748 96.7439947,3.096 97.8,3.096 Z M111.792,3.12 C113.520009,3.12 114.875995,3.57599544 115.86,4.488 C116.844005,5.40000456 117.336,6.6159924 117.336,8.136 C117.336,8.48800176 117.296,8.91999744 117.216,9.432 C117.12,9.9120024 117.016001,10.2959986 116.904,10.584 L107.136,10.584 C107.104,10.7600009 107.088,11.0159983 107.088,11.352 C107.088,12.2800046 107.327998,12.9599978 107.808,13.392 C108.288002,13.8240022 108.919996,14.04 109.704,14.04 C110.488004,14.04 111.175997,13.844002 111.768,13.452 C112.360003,13.059998 112.783999,12.5440032 113.04,11.904 L116.616,11.904 C116.087997,13.3440072 115.180006,14.5119955 113.892,15.408 C112.603994,16.3040045 111.104009,16.752 109.392,16.752 C107.695992,16.752 106.348,16.2800047 105.348,15.336 C104.348,14.3919953 103.848,13.0800084 103.848,11.4 C103.848,10.8879974 103.896,10.3440029 103.992,9.768 C104.232001,8.4079932 104.723996,7.228005 105.468,6.228 C106.212004,5.227995 107.131995,4.46000268 108.228,3.924 C109.324005,3.38799732 110.511994,3.12 111.792,3.12 Z M113.856,9.096 C113.92,8.79199848 113.952,8.48800152 113.952,8.184 C113.952,7.383996 113.704002,6.784 113.208,6.384 C112.711998,5.983998 112.088004,5.784 111.336,5.784 C110.407995,5.784 109.584004,6.0639972 108.864,6.624 C108.143996,7.1840028 107.656001,8.00799456 107.4,9.096 L113.856,9.096 Z M123,11.952 C122.968,12.0960007 122.952,12.2879988 122.952,12.528 C122.952,12.9600022 123.063999,13.2599992 123.288,13.428 C123.512001,13.5960008 123.879997,13.68 124.392,13.68 L125.712,13.68 L125.184,16.584 L123.408,16.584 C122.143994,16.584 121.176003,16.3280026 120.504,15.816 C119.831997,15.3039974 119.496,14.4640058 119.496,13.296 C119.496,12.8639978 119.544,12.4000025 119.64,11.904 L120.648,6.144 L118.8,6.144 L119.304,3.288 L121.152,3.288 L121.728,5.68434189e-14 L125.136,5.68434189e-14 L124.56,3.288 L127.488,3.288 L126.984,6.144 L124.032,6.144 L123,11.952 Z" id="net" fill="#4A90E2"></path>
        </g>
    </g>
</svg>